# xmcd
#
# Track frame offsets:
#	150
#	18612
#	34245
#	50294
#	65611
#	81940
#	101159
#	118657
#	142488
#	162762
#	183095
#	200712
#	220433
#	237353
#	256692
#	272307
#	285868
#	307574
#	329534
#
# Disc length: 4694 seconds
#
# Revision: 0
# Processed by: cddbd v1.5.2PL0 Copyright (c) Steve Scherf et al.
# Submitted via: EasyCDDAExtractor 9.0.0.1
#
DISCID=12125413
DTITLE=DJ FINESSE - The Best Of Musiq
DYEAR=2007
DGENRE=RnB
TTITLE0=01. Just Friends
TTITLE1=02. For the night
TTITLE2=03. Buddy
TTITLE3=04. Stop playin
TTITLE4=05. Newness
TTITLE5=06. Miss You
TTITLE6=07. Best Friend
TTITLE7=08. How do we make love
TTITLE8=09. Settle for my love
TTITLE9=10. One night
TTITLE10=11. Girl next door
TTITLE11=12. Previous cats
TTITLE12=13. When i'm with you
TTITLE13=14. Half crazy
TTITLE14=15. You and me against the world
TTITLE15=16. Mary go round
TTITLE16=17. Seventeen
TTITLE17=18. 143
TTITLE18=19. Love
EXTD=
EXTT0=
EXTT1=
EXTT2=
EXTT3=
EXTT4=
EXTT5=
EXTT6=
EXTT7=
EXTT8=
EXTT9=
EXTT10=
EXTT11=
EXTT12=
EXTT13=
EXTT14=
EXTT15=
EXTT16=
EXTT17=
EXTT18=
PLAYORDER=
